<?xml version="1.0" standalone="no"?>
<!DOCTYPE svg PUBLIC "-//W3C//DTD SVG 20010904//EN"
 "http://www.w3.org/TR/2001/REC-SVG-20010904/DTD/svg10.dtd">
<svg version="1.0" xmlns="http://www.w3.org/2000/svg"
 width="700.000000pt" height="700.000000pt" viewBox="0 0 700.000000 700.000000"
 preserveAspectRatio="xMidYMid meet">
<metadata>
Created by potrace 1.11, written by Peter Selinger 2001-2013
</metadata>
<g transform="translate(0.000000,700.000000) scale(0.100000,-0.100000)"
fill="#000000" stroke="none">
<path d="M0 4115 l0 -2885 1235 0 1235 0 0 -410 0 -410 -410 0 -410 0 0 -205
0 -205 1850 0 1850 0 0 205 0 205 -410 0 -410 0 0 410 0 410 1235 0 1235 0 0
2885 0 2885 -3500 0 -3500 0 0 -2885z m6580 395 l0 -2050 -3075 0 -3075 0 0
2050 0 2050 3075 0 3075 0 0 -2050z"/>
<path d="M4320 5950 l0 -210 -130 0 c-81 0 -130 -4 -130 -10 0 -6 50 -208 110
-450 61 -242 110 -446 110 -454 0 -7 -24 -31 -52 -53 -128 -97 -252 -247 -330
-399 -151 -297 -198 -584 -198 -1221 l0 -283 1236 0 1236 0 -5 398 c-5 403
-11 481 -48 675 -65 350 -236 648 -471 826 -32 24 -58 47 -58 51 0 4 50 209
110 455 61 246 110 451 110 456 0 5 -57 10 -127 11 l-128 3 -3 208 -2 207
-205 0 -205 0 0 -210 0 -210 -202 2 -203 3 -3 208 -2 207 -205 0 -205 0 0
-210z"/>
</g>
</svg>
